<svg xmlns="http://www.w3.org/2000/svg" xmlns:xlink="http://www.w3.org/1999/xlink" viewBox="0 0 221.76 54.83"><defs><style>.cls-1{fill:none;}.cls-2{clip-path:url(#clip-path);}.cls-3{fill:#fff;}</style><clipPath id="clip-path" transform="translate(0 0)"><rect class="cls-1" width="221.76" height="54.83"/></clipPath></defs><title>logo-pizzahut</title><g id="Layer_2" data-name="Layer 2"><g id="Layer_1-2" data-name="Layer 1"><g class="cls-2"><path class="cls-3" d="M3.18,35.58a4.36,4.36,0,0,0-.67-2.5,1.45,1.45,0,0,0-1.11-.55c-2,0-1.35,3.2-1,4.28a2.46,2.46,0,0,0,.72,1.26,2.8,2.8,0,0,0,1.33.58.77.77,0,0,0,1-.86,14.46,14.46,0,0,1-.23-2.21" transform="translate(0 0)"/><path class="cls-3" d="M34.69,19.83h0c.46-.05.63.22.76.69,0,.13.11.44.2.83a18.27,18.27,0,0,0,.69,2.54c.16.06,1,.29,1.83.5,1.48.39,3.33.88,4.07,1.18l.75.3c2.48,1,3.67,1.51,3.69,2.06a1.17,1.17,0,0,1-.28.76,1,1,0,0,1-.9.36c-.33,0-6,.29-11.63.88-2.29.24-4.23.49-5.76.75-6.15,1-16.86,3.15-17.2,3.24l-.22,0A.72.72,0,0,1,10,33.7a.51.51,0,0,1,0-.51c.26-.48,3.64-2.63,5.41-3.64,1.59-.91,3.45-1.78,4.45-2.24l.74-.35c.09-.1.68-1,1.15-1.76,1.57-2.46,1.69-2.57,1.89-2.6s2.66-.66,5.08-1.28c3.59-.91,5.79-1.47,5.95-1.49M58,22.05S56.09,6,42.3,1.65C34.61-.77,30.78,0,26.07.78,20.54,1.75,13.9,4.1,9.14,8.17A23.78,23.78,0,0,0,1.33,20.44a20.87,20.87,0,0,0-.23,8.63c.19,1.09,1.73,2.1,1.74.33C3,9.65,19.27,6,19.84,5.87c.21,0,.42-.08.6-.13a2.14,2.14,0,0,1,.79-.07.21.21,0,0,1,0,.4c-1.3.62-6.36,2.33-9.11,4.75A21.7,21.7,0,0,0,4.57,24a58.54,58.54,0,0,0,.17,11.42,18.06,18.06,0,0,0,3.1,7.15,28.36,28.36,0,0,0,10.94,8.05,38.71,38.71,0,0,0,5.06,1.09c.38.09.34.57-.06.63-1.78.28-6.08-.7-9.64-2.45a21.11,21.11,0,0,1-6.31-5.07c-2-2.14-3-4.37-3.77-4.22-1.21.25-.19,2.83.35,3.82a21,21,0,0,0,7.31,7.37,25.84,25.84,0,0,0,14.08,3c11.2-.95,18.08-6.32,21.13-10.54,1.79-2.46,5.79-7.67,5.7-15.27,0-1.21.09-9.63-2.67-14-.62-1-2.51-5.1-9.62-8.59a13.77,13.77,0,0,0-5-1.55c-.84,0-2.53-.09-2.37-1.09.11-.7,4.26.22,4.69.35a31.82,31.82,0,0,1,9.46,5.13c8.24,6.28,7.41,19.6,7.41,19.6C54.21,42.94,45.93,48.93,40,52.47c-.12.07-.55.62-.41.83s.43.19.71.16c2.29-.23,4.51-1.93,6.41-3.42,9.83-7.69,10.33-13.7,10.87-16a42.53,42.53,0,0,0,.46-12" transform="translate(0 0)"/></g><path class="cls-3" d="M206.26,38.12h1.62v.33h-.61v1.71h-.39V38.45h-.62Zm1.92,0h.59l.56,1.57h0l.55-1.57h.6v2h-.39V38.45h0l-.6,1.71h-.31l-.6-1.71h0v1.71h-.39Z" transform="translate(0 0)"/><path class="cls-3" d="M187.38,35.61c.74-2.16,1.66-7.15-1.38-7.91a4,4,0,0,0-3.22.71c0,1.14,1.26.9,1.26,2-.78,2.3-4,6.6-1.25,9.17,2.52,2.3,6.64-.47,7.9-1.41,1-.72,1.8-1.69,2.59-1.82.3,3,1.43,5,4.09,5.36.79-.86.11-1.84.12-2.94a27.54,27.54,0,0,1,1-5.5c.41-1.82,1.45-3.82.09-5.51-1.58-.35-2.25,1-2.94,1.81a18.27,18.27,0,0,1-8.26,6M114.72,25.34c-2.1-.75-5.65-.27-8.78-.43-2.8-.15-6.45-1.17-6.27,1.24.21,2.85,5.93,2.55,8.93,2.27-2.11,1.95-4.61,3.84-7,5.82C99.53,36,95.74,38,96.77,41.92c2.34,1.32,5.11,0,8.2-.13,5.81-.21,10.77,1.53,16.3,1.05,2.16-.19,5.55-.92,5.38-3.27-1.22-.72-2.26,0-3.45.16-5.68.6-11-2.57-17.49-2.15,1.66-1.73,3.85-3.46,5.76-5.29,1.74-1.65,4.32-3.75,3.25-6.95M97.48,23.93a1.12,1.12,0,0,0-1.61.36c-2.56,3.1-8.39,7.92-7.87,13,.19,1.81,1.23,4.11,3.56,3.34.69-.61.41-1.42.73-2.2,1.86-4.56,7.25-7.75,5.19-14.47m25.4,9.74c1.66-1.5,3-3,4.9-4.74,1.27-1.21,4.69-3.28,3.71-5.85-.54-1.4-3-1.69-4.7-1.69-2.47,0-5.62.76-8.14.68-.9,0-1.7-.76-2.39-.21-2.3,4.82,5,4.5,8.54,4.11-2.58,2.79-7.14,4.5-9.39,7.64a3.75,3.75,0,0,0-.81,3.48c1,.77,2.06.24,3.12.21,4.78-.15,10.27,1.42,13.83-.26a16.45,16.45,0,0,0,1.88-1.46c4.36,1.4,7.46-1.08,10-2.5,1.54,2.07,7.83,2.21,8.34-.49-1-1.68-3.71-.73-4.22-2.6s2.78-4.71.72-6.79c-.81-.55-1.69.31-2.19,0-6.25-.78-12.76,2.63-14.35,7.25a7.35,7.35,0,0,0,.14,3.85c-2.66,1.1-6.09-.22-9-.61m14.38-2.47c.68-2.76,3.16-3.82,6-4.54.77,0-.34.82-.26,1.28a3.41,3.41,0,0,0-.41,1.65c-1.77.55-3,1.6-5.34,1.61M212,18c-2.26-.58-3.19,1.14-4.51,2.72-1.07,1.28-1.72,2.56-2.33,2.74-1.5.45-3.86-1-5.15-.59a1.76,1.76,0,0,0-1.16,1.46c0,2,2.34,2.26,4.26,3a35.55,35.55,0,0,0-2.56,6.59c-.54,2.3-1.16,5.67.13,8.09,1.56-.26,1.93-2.12,2.46-3.29,1.81-4.05,3.51-8.24,5.78-11.71A57.68,57.68,0,0,0,219,25c1-.25,2.45-.15,2.81-1.26-.73-.87-2.16-.57-3.33-.58-2.77,0-5.76.16-7.64.13.66-1.4,2.57-3.11,1.2-5.32M105.41,14.07c-2.77-.9-7.35,1.27-8.83,3.42-1,1.38-1.27,4.1.56,4.6,2.31.63,4-2,5-3.08,1.5-1.64,2.82-2.77,3.24-4.94m63.46,11.49c1-1.87,1.6-3.55,2.62-5.86.45-1,3-5.65.58-6.24a.54.54,0,0,0-.18,0c-4.09,1.15-7,9-9.56,12.24-3.13-.08-6.93-.33-6.77,2,.13,1.88,2.87,2.24,4.45,3.16-.58,1.82-4.07,9.13-1.09,11s4.75-2.62,5.46-4.55A43.79,43.79,0,0,1,167,30.87c2.46-.18,5.18-1,7.2-1.05-.54,2.14-1.74,5.13-.45,7.89,2.29,1.47,4-.14,4.79-1.61,1.27-2.36,1.46-6.54,2.4-8.43,1.48-.89,3.78-1,4.14-2.91-.85-.83-2.16,0-3.28,0A39.85,39.85,0,0,1,183.36,20c.53-1.58,1.56-3.51.3-5.14-2.55.43-3.64,2.75-4.72,4.55-1.2,2-2.16,4.13-3.33,6-2.27,0-4.3.26-6.74.13M76.67,30.2c.94-1.05,2.62-.85,4.09-1.25,2.56-.71,6.55-2.57,6.44-5.83-.09-2.85-2.84-4.52-6.06-5-2.27,7.76-6.08,14.67-9.72,21.42-1.09,2-2.18,5-5,5.29-1.41-1.22-.93-3-.71-4.23a45.37,45.37,0,0,1,3.85-10.81,48.72,48.72,0,0,1,8-11.88c-1.32.05-2.16.23-3.13-.39-.86-3.76,3.09-4.56,5.81-4.73,6.28-.39,12.61,3.18,12.45,9.64-.12,5.24-5.76,8.67-11.09,9.1-1.5.12-3.8.31-4.85-1.32" transform="translate(0 0)"/></g></g></svg>