<?xml version="1.0" standalone="no"?>
<!DOCTYPE svg PUBLIC "-//W3C//DTD SVG 20010904//EN"
 "http://www.w3.org/TR/2001/REC-SVG-20010904/DTD/svg10.dtd">
<svg version="1.0" xmlns="http://www.w3.org/2000/svg"
 width="189.000000pt" height="189.000000pt" viewBox="0 0 189.000000 189.000000"
 preserveAspectRatio="xMidYMid meet">
<metadata>
Created by potrace 1.11, written by Peter Selinger 2001-2013
</metadata>
<g transform="translate(0.000000,189.000000) scale(0.100000,-0.100000)"
fill="#000000" stroke="none">
<path d="M117 1462 c-15 -17 -17 -59 -17 -405 0 -444 2 -455 87 -542 124 -128
316 -132 452 -10 l42 38 35 -37 c51 -54 131 -87 213 -88 92 -2 160 23 224 81
l52 48 23 -29 c53 -64 179 -111 273 -101 24 2 70 17 102 32 l59 28 9 -24 c10
-26 43 -43 71 -35 41 10 44 31 43 275 -1 233 -1 233 -28 289 -55 112 -155 179
-278 184 -101 4 -181 -27 -248 -96 l-28 -30 -40 39 c-63 59 -123 84 -212 87
-96 3 -161 -20 -231 -82 l-50 -46 -35 35 c-61 61 -117 82 -220 82 -79 0 -98
-3 -143 -27 l-52 -27 0 169 c0 157 -2 172 -20 190 -25 25 -62 26 -83 2z m911
-436 c38 -20 78 -65 95 -106 18 -43 22 -184 7 -239 -38 -141 -228 -191 -332
-87 -47 48 -58 85 -58 197 0 84 4 111 21 146 45 94 175 137 267 89z m537 -6
c79 -49 102 -107 99 -252 -1 -74 -5 -93 -28 -132 -55 -95 -177 -127 -271 -72
-82 48 -106 110 -101 258 4 92 18 128 69 177 57 52 165 62 232 21z m-1053 -7
c17 -10 45 -35 62 -56 30 -38 31 -42 34 -157 4 -122 -2 -149 -46 -201 -46 -56
-163 -79 -228 -46 -41 21 -84 66 -100 104 -17 40 -20 185 -4 242 13 50 75 116
122 130 44 14 123 6 160 -16z"/>
</g>
</svg>
